Coordinates
version=1
nRows=9
nColumns=24
inDegrees=yes

Units are S.I. units (second, meters, Newtons, ...)
Angles are in degrees.

endheader
time	pelvis_tilt	pelvis_list	pelvis_rotation	pelvis_tx	pelvis_ty	pelvis_tz	hip_flexion_r	hip_adduction_r	hip_rotation_r	knee_angle_r	ankle_angle_r	subtalar_angle_r	mtp_angle_r	hip_flexion_l	hip_adduction_l	hip_rotation_l	knee_angle_l	ankle_angle_l	subtalar_angle_l	mtp_angle_l	lumbar_extension	lumbar_bending	lumbar_rotation
      0.54200000	     -1.07705833	      5.45635288	      2.46592300	     -0.83087117	      0.97757457	      0.31049968	     26.35839357	     -4.42622334	     -5.61406801	     -6.61309938	      7.91665497	     -3.90140503	      0.87713907	    -14.66611699	      9.24307054	      4.08665082	     -7.49605153	     10.53246325	     -5.37636266	      0.10980770	     -0.56172532	     -3.55092486	     -0.36954621
      0.54616667	     -1.11280381	      5.40541848	      2.43891160	     -0.82491974	      0.97699130	      0.31084025	     26.40240538	     -4.30060992	     -5.56903028	     -6.90303749	      7.65225162	     -4.08599757	      6.34500910	    -14.71967639	      9.14793236	      3.87263389	     -8.01625093	     10.62981545	     -4.98415227	     -0.49869497	     -0.45837197	     -3.48116193	     -0.36441198
      0.55033333	     -1.13802622	      5.37104762	      2.42382715	     -0.81893653	      0.97645992	      0.31114619	     26.45408884	     -4.20362891	     -5.55763540	     -7.30342565	      7.48257092	     -4.00043636	      6.36644660	    -14.78652755	      9.07316361	      3.74739503	     -8.52883973	     10.62935651	     -4.75145010	     -0.46841233	     -0.37035832	     -3.43295597	     -0.42322302
      0.55450000	     -1.18385193	      5.31944771	      2.39040420	     -0.81292111	      0.97591287	      0.31149982	     26.52306835	     -4.07410358	     -5.45428942	     -7.73986637	      7.27240904	     -4.07530444	      6.40740593	    -14.81069305	      8.98269501	      3.58205929	     -9.08092622	     10.62943104	     -4.48181469	     -0.40079002	     -0.25253546	     -3.36414920	     -0.44959212
      0.55866667	     -1.21577132	      5.27802664	      2.35126349	     -0.80686758	      0.97542796	      0.31186080	     26.56921493	     -3.95279776	     -5.31714433	     -8.20005113	      6.95660447	     -4.15022692	      6.43790389	    -14.85303851	      8.90674313	      3.47027618	     -9.62129139	     10.52565340	     -4.29890269	     -0.34428233	     -0.14518586	     -3.30603460	     -0.47084800
      0.56283333	     -1.28168144	      5.22500972	      2.31177022	     -0.80079353	      0.97491864	      0.31224438	     26.65151710	     -3.81507691	     -5.13468481	     -8.70082206	      6.64514614	     -4.29456019	      6.48419388	    -14.80951255	      8.81625949	      3.29310359	    -10.25172289	     10.45666840	     -4.05155100	     -0.25517023	      0.00079038	     -3.23797065	     -0.49086185
      0.56700000	     -1.31006384	      5.15275414	      2.25146508	     -0.79467848	      0.97447593	      0.31267508	     26.67777310	     -3.64264820	     -4.89745022	     -9.20469252	      6.32436013	     -4.59402536	      6.59350596	    -14.77595047	      8.70095324	      3.03689174	    -10.94217543	     10.42180535	     -3.70050743	     -0.03453526	      0.11732304	     -3.13783672	     -0.49374953
      0.57116667	     -1.37095443	      5.09325730	      2.20893144	     -0.78855896	      0.97404191	      0.31308017	     26.72990556	     -3.49096603	     -4.64425873	     -9.71456111	      5.91318663	     -4.81441565	      6.68877261	    -14.69211352	      8.60381246	      2.87327885	    -11.65640404	     10.26364965	     -3.51540650	      0.17421771	      0.26128956	     -3.06642090	     -0.49792768
      0.57533333	     -1.41391532	      5.03368914	      2.12558317	     -0.78236165	      0.97364864	      0.31351475	     26.78332576	     -3.32955387	     -4.40318964	    -10.28632574	      5.45452371	     -4.96733131	      6.73814139	    -14.64993104	      8.51936293	      2.72910964	    -12.31723173	      9.99200760	     -3.38091991	      0.29539873	      0.39633370	     -2.97696429	     -0.50791459
